<?xml version="1.0" encoding="UTF-8" standalone="no"?>
<svg
   xmlns:dc="http://purl.org/dc/elements/1.1/"
   xmlns:cc="http://creativecommons.org/ns#"
   xmlns:rdf="http://www.w3.org/1999/02/22-rdf-syntax-ns#"
   xmlns:svg="http://www.w3.org/2000/svg"
   xmlns="http://www.w3.org/2000/svg"
   xmlns:sodipodi="http://sodipodi.sourceforge.net/DTD/sodipodi-0.dtd"
   xmlns:inkscape="http://www.inkscape.org/namespaces/inkscape"
   width="2000pt"
   height="500pt"
   viewBox="0 0 2000 500"
   version="1.1"
   id="svg2"
   inkscape:version="0.48.5 r10040"
   sodipodi:docname="4500pink22.svg">
  <metadata
     id="metadata108">
    <rdf:RDF>
      <cc:Work
         rdf:about="">
        <dc:format>image/svg+xml</dc:format>
        <dc:type
           rdf:resource="http://purl.org/dc/dcmitype/StillImage" />
        <dc:title></dc:title>
      </cc:Work>
    </rdf:RDF>
  </metadata>
  <defs
     id="defs106" />
  <sodipodi:namedview
     pagecolor="#ffffff"
     bordercolor="#666666"
     borderopacity="1"
     objecttolerance="10"
     gridtolerance="10"
     guidetolerance="10"
     inkscape:pageopacity="0"
     inkscape:pageshadow="2"
     inkscape:window-width="1920"
     inkscape:window-height="1137"
     id="namedview104"
     showgrid="false"
     inkscape:zoom="0.6"
     inkscape:cx="942.32782"
     inkscape:cy="102.97781"
     inkscape:window-x="-8"
     inkscape:window-y="-8"
     inkscape:window-maximized="1"
     inkscape:current-layer="svg2" />
  <path
     d="M 140.96875 29.71875 C 134.57339 29.713965 128.19844 30.234375 121.84375 31 C 92.08125 35.25 65.00625 54.3125 50.78125 80.75 C 42.76875 95.375 38.7 112.0875 39 128.75 C 38.975 244.15 39 359.55625 39 474.96875 C 39.1 486.25625 38.44375 497.7125 40.96875 508.8125 C 45.95625 533.9875 61.6125 556.6875 83.0625 570.6875 C 99.0625 581.3375 118.3 586.575 137.4375 586.6875 C 257.875 586.675 378.3125 586.69375 498.75 586.65625 C 529.0875 586.43125 558.91875 571.43125 576.71875 546.78125 C 589.00625 530.18125 595.68125 509.55625 595.53125 488.90625 C 595.58125 368.86875 595.55 248.81875 595.5 128.78125 C 595.575 116.33125 593.53125 103.81875 588.96875 92.21875 C 578.86875 65.76875 556.6375 44.31875 529.8125 35.28125 C 517.4625 30.88125 504.2625 29.70625 491.25 29.84375 C 375.4125 29.83125 259.56875 29.775 143.71875 29.75 C 142.80469 29.728125 141.88237 29.719434 140.96875 29.71875 z M 315 85.375 C 325.2375 85.0625 335.09375 89.475 342.84375 95.9375 C 358.65625 108.85 374.60625 121.5875 390.15625 134.8125 C 401.28125 128.6875 413.275 122.8 426.3125 123.125 C 444.4625 123.125 460.65 136.2 467.6875 152.375 C 468.1625 168.75 467.0625 185.13125 467.1875 201.53125 C 494.075 224.69375 521.39375 247.35 548.03125 270.8125 C 558.49375 282.1125 557.7375 301.9875 545.9375 312.125 C 542.0875 315.9875 536.725 317.69375 531.375 317.96875 C 521.2875 318.83125 511.175 318.46875 501.0625 318.34375 C 500.95 374.68125 501.275 431.0375 500.6875 487.375 C 500.7875 496.5125 497.9375 506.03125 491.1875 512.46875 C 483.825 519.21875 473.625 522.4125 463.75 522.3125 C 384.1625 523.075 304.5375 522.5125 224.9375 522.6875 C 204.15 522.5375 183.3375 523.04375 162.5625 522.15625 C 153.4 521.71875 144.06875 517.8625 138.34375 510.5 C 132.46875 502.9875 130.2 493.2 130.375 483.8125 C 130.5 428.85 130.8375 373.9 130.875 318.9375 C 122.25 319.1 113.65625 318.575 105.03125 318.3125 C 97.38125 317.825 88.9375 316.1625 83.75 310 C 75.5 300.5875 75.7125 286.4375 80.4375 275.4375 C 81.675 272.3375 84.425 270.3 86.8125 268.125 C 150.7 212.7625 214.84375 157.675 278.78125 102.375 C 288.64375 93.2125 301.0875 85.3375 315 85.375 z "
     transform="scale(0.8,0.8)"
     id="path6"
     style="fill:#fafafa;fill-opacity:1" />
  <path
     fill="#faf6fc"
     d=" M 695.26 61.66 C 698.85 61.63 702.56 61.26 706.11 61.86 C 717.85 78.02 728.72 94.84 740.52 110.97 C 752.02 94.55 763.30 77.98 774.82 61.57 C 778.57 61.57 782.32 61.56 786.08 61.60 C 786.02 88.25 786.28 114.92 785.91 141.56 C 782.27 141.19 778.41 142.03 774.92 141.14 C 774.67 121.46 775.03 101.76 774.73 82.07 C 763.69 97.63 752.99 113.42 742.06 129.05 C 741.46 129.78 740.85 130.49 740.24 131.20 C 728.93 114.82 717.63 98.43 706.22 82.13 C 705.81 101.93 706.36 121.75 705.95 141.54 C 702.28 141.47 698.62 141.47 694.95 141.53 C 694.65 115.68 694.95 89.81 694.82 63.96 C 694.93 63.38 695.15 62.23 695.26 61.66 Z"
     id="path8"
     style="fill:#fafafa;fill-opacity:1" />
  <path
     d="M 699.59375 76.96875 C 687.63906 76.96875 675.7 76.9875 663.75 77 C 648.9875 76.95 635.5875 90.10625 635.625 104.90625 C 635.5375 124.18125 635.68125 143.44375 635.53125 162.71875 C 630.81875 162.74375 626.10625 162.7375 621.40625 162.75 C 621.36875 167.4625 621.36875 172.18125 621.40625 176.90625 C 664.18125 176.89375 706.975 176.8875 749.75 176.875 C 749.7875 172.175 749.775 167.48125 749.75 162.78125 C 745.0375 162.76875 740.30625 162.775 735.59375 162.75 C 735.40625 134.1875 735.61875 105.60625 735.46875 77.03125 C 723.5125 76.99375 711.54844 76.96875 699.59375 76.96875 z M 668.78125 91.0625 C 686.26875 91.2 703.74375 90.91875 721.21875 91.21875 C 721.64375 112.89375 721.2375 134.59375 721.4375 156.28125 C 721.3875 158.33125 721.55625 160.4375 721.03125 162.4375 C 719.06875 163.0625 716.95 162.69375 714.9375 162.78125 C 693.225 162.68125 671.5125 162.84375 649.8125 162.71875 C 649.7 143.90625 649.7875 125.08125 649.75 106.28125 C 649.5 101.29375 651.89375 96.3125 656.09375 93.5625 C 659.75625 90.9375 664.46875 91.05 668.78125 91.0625 z "
     transform="scale(0.8,0.8)"
     id="path10"
     style="fill:#fafafa;fill-opacity:1" />
  <path
     d="M 784.40625 76.96875 C 781.38457 77.057227 778.36875 77.409375 775.5 78.375 C 764.2125 81.9625 755.68125 93.04375 755.59375 104.96875 C 755.56875 120.01875 755.45 135.075 755.625 150.125 C 755.9875 164.65 769.15 177.225 783.6875 176.875 C 798.2875 176.875 812.9 176.925 827.5 176.875 C 842.325 176.975 855.6375 163.5625 855.4375 148.75 C 855.4875 134.1875 855.48125 119.625 855.40625 105.0625 C 855.41875 90.325 842.2125 77.26875 827.5625 77.03125 C 814.1875 76.93125 800.8 77.05625 787.4375 76.96875 C 786.43438 76.95625 785.41348 76.939258 784.40625 76.96875 z M 787.5625 91.0625 C 788.37539 91.066406 789.19062 91.065625 790 91.0625 C 802.525 91.175 815.0875 90.9625 827.625 91.1875 C 834.8625 91.3125 841.2875 97.69375 841.3125 104.96875 C 841.4375 119.58125 841.425 134.2 841.3125 148.8125 C 841.3375 156.1375 834.86875 162.73125 827.53125 162.71875 C 812.95625 162.81875 798.35625 162.79375 783.78125 162.71875 C 776.35625 162.83125 769.68125 156.25 769.78125 148.8125 C 769.73125 134.2125 769.70625 119.6125 769.78125 105 C 769.78125 98.8375 774.3625 93.10625 780.3125 91.65625 C 782.68437 91.084375 785.12383 91.050781 787.5625 91.0625 z "
     transform="scale(0.8,0.8)"
     id="path12"
     style="fill:#fafafa;fill-opacity:1" />
  <path
     d="M 1026.5312 76.9375 C 1023.0396 76.993164 1019.5531 77.309375 1016.2812 78.59375 C 1005.3313 82.40625 997.0375 93.33125 997.0625 105.03125 C 997.075 128.94375 997.10625 152.8375 997.09375 176.75 C 1001.7563 176.9125 1006.4375 176.85625 1011.125 176.84375 C 1011.2 167.34375 1011.0813 157.875 1011.1562 148.375 C 1035.0063 148.2375 1058.8688 148.28125 1082.7188 148.34375 C 1082.7812 157.84375 1082.7187 167.3625 1082.7812 176.875 C 1087.5062 176.8875 1092.2125 176.8875 1096.9375 176.875 C 1096.925 152.875 1097.075 128.875 1096.9375 104.875 C 1096.55 90.6375 1084.3875 77.59375 1070 77.03125 C 1056.675 76.83125 1043.325 77.025 1030 76.9375 C 1028.8438 76.925 1027.6951 76.918945 1026.5312 76.9375 z M 1047.5 91.09375 C 1054.6078 91.085938 1061.7062 91.10625 1068.8125 91.21875 C 1076.1375 91.23125 1082.7375 97.675 1082.6875 105.0625 C 1082.8 114.7375 1082.7188 124.40625 1082.7188 134.09375 C 1058.8688 134.13125 1035.0375 134.175 1011.1875 134.0625 C 1011.1875 124.3375 1011.025 114.61875 1011.25 104.90625 C 1011.2625 97.15625 1018.55 90.7125 1026.1875 91.125 C 1033.2875 91.11875 1040.3922 91.101562 1047.5 91.09375 z "
     transform="scale(0.8,0.8)"
     id="path14"
     style="fill:#fafafa;fill-opacity:1" />
  <path
     fill="#faf6fc"
     d=" M 889.13 61.57 C 892.88 61.54 896.64 61.54 900.40 61.57 C 900.51 84.45 900.34 107.32 900.47 130.19 C 911.91 130.19 923.34 130.27 934.77 130.14 C 934.82 107.28 934.75 84.43 934.79 61.57 C 938.57 61.53 942.35 61.53 946.14 61.58 C 946.21 84.45 946.06 107.33 946.18 130.20 C 957.60 130.19 969.01 130.22 980.43 130.19 C 980.56 107.31 980.40 84.43 980.49 61.55 C 984.27 61.54 988.05 61.53 991.83 61.56 C 991.85 88.22 991.86 114.87 991.82 141.52 C 957.59 141.52 923.37 141.51 889.14 141.50 C 889.10 114.86 889.12 88.22 889.13 61.57 Z"
     id="path16"
     style="fill:#fafafa;fill-opacity:1" />
  <path
     fill="#faf6fc"
     d=" M 1003.36 141.53 C 1003.31 114.86 1003.30 88.20 1003.35 61.53 C 1007.16 61.53 1010.98 61.49 1014.81 61.62 C 1014.72 73.02 1014.75 84.42 1014.79 95.82 C 1033.80 95.81 1052.81 95.82 1071.83 95.80 C 1071.85 84.39 1071.80 72.98 1071.84 61.57 C 1075.65 61.50 1079.47 61.51 1083.30 61.55 C 1083.32 88.20 1083.29 114.84 1083.29 141.49 C 1079.46 141.53 1075.62 141.67 1071.80 141.37 C 1071.91 130.01 1071.83 118.65 1071.83 107.30 C 1052.82 107.25 1033.80 107.31 1014.79 107.26 C 1014.71 118.67 1014.76 130.08 1014.76 141.49 C 1010.96 141.54 1007.15 141.53 1003.36 141.53 Z"
     id="path18"
     style="fill:#fafafa;fill-opacity:1" />
  <path
     fill="#faf6fc"
     d=" M 1094.75 61.54 C 1098.55 61.51 1102.36 61.50 1106.18 61.56 C 1106.22 82.65 1106.10 103.75 1106.22 124.84 C 1125.28 103.82 1144.22 82.68 1163.20 61.59 C 1167.04 61.47 1170.90 61.50 1174.76 61.53 C 1174.83 88.16 1174.64 114.79 1174.84 141.43 C 1171.00 141.63 1167.17 141.53 1163.35 141.55 C 1163.22 120.05 1163.42 98.55 1163.24 77.05 C 1144.31 98.57 1125.19 119.93 1106.30 141.49 C 1102.43 141.54 1098.57 141.63 1094.72 141.42 C 1094.82 114.79 1094.71 88.17 1094.75 61.54 Z"
     id="path20"
     style="fill:#fafafa;fill-opacity:1" />
  <path
     fill="#faf6fc"
     d=" M 1186.18 61.52 C 1212.85 61.53 1239.52 61.47 1266.20 61.54 C 1266.13 65.12 1266.33 68.71 1266.16 72.29 C 1265.92 72.49 1265.42 72.89 1265.17 73.09 C 1242.67 73.20 1220.15 73.13 1197.64 73.12 C 1197.60 80.68 1197.61 88.24 1197.63 95.79 C 1216.68 95.81 1235.73 95.70 1254.78 95.85 C 1254.73 99.70 1254.89 103.57 1254.60 107.42 C 1235.58 107.26 1216.55 107.23 1197.54 107.42 C 1197.73 115.00 1197.52 122.59 1197.66 130.18 C 1220.50 130.22 1243.35 130.15 1266.20 130.21 C 1266.18 133.97 1266.17 137.72 1266.21 141.48 C 1239.54 141.65 1212.87 141.50 1186.20 141.55 C 1186.15 114.87 1186.19 88.19 1186.18 61.52 Z"
     id="path22"
     style="fill:#fafafa;fill-opacity:1" />
  <path
     d="M 314.625 100.3125 C 306.40425 100.50284 298.83594 104.99219 292.625 110.125 C 227.175 166.75 161.4875 223.05625 96.125 279.78125 C 92.4875 282.33125 92.2875 287.1625 92.0625 291.1875 C 91.8625 296.0875 94.3625 301.98125 99.8125 302.65625 C 115.0625 304.76875 130.525 303.80625 145.875 304.09375 C 145.65 363.56875 145.65625 423.05625 145.28125 482.53125 C 145.11875 489.78125 146.15625 497.9875 151.84375 503.125 C 157.16875 507.6875 164.5875 507.55625 171.1875 507.71875 C 267.475 507.89375 363.74375 507.8125 460.03125 507.6875 C 467.69375 507.6625 476.45 506.65 481.875 500.625 C 487.2125 494.1 485.425 485.16875 485.875 477.40625 C 485.7 453.69375 486.6125 430.025 486.4375 406.3125 C 486.45 371.8 486.45625 337.28125 486.46875 302.78125 C 502.14375 303.20625 517.95 304.65 533.5625 302.625 C 542.075 298.6125 542.85625 285.1 535.46875 279.5625 C 508.40625 256.125 481.1125 232.94375 453.75 209.84375 C 451.275 208.19375 452.45625 204.9 452.21875 202.4375 C 452.79375 186.9375 452.63125 171.41875 452.96875 155.90625 C 447.39375 146.36875 437.775 138.05625 426.1875 138.09375 C 412.4875 138.03125 400.625 145.9875 389.625 153.25 C 370.25 137.95 351.4625 121.9125 332.125 106.5625 C 327.5875 103.0375 322.1 100.3375 316.25 100.3125 C 315.69609 100.28594 315.17305 100.29981 314.625 100.3125 z M 313.6875 190.5 C 330.85 190.225 348.05 194.70625 362.875 203.34375 C 382.175 214.51875 397.4 232.6375 404.8125 253.6875 C 412.675 275.5375 412.125 300.275 403.25 321.75 C 400.15 329.5875 395.40625 336.61875 391.59375 344.09375 C 384.94375 355.00625 379.25 366.48125 374.5 378.34375 C 370.3 387.94375 369.96875 398.6 368.96875 408.875 C 333.75625 413.9875 298.60625 419.35 263.40625 424.5 C 263.21875 408.925 262.9625 393 258.0625 378.0625 C 252.7 362.6375 243.1125 349.2 234.1875 335.6875 C 221.425 315.2625 217.04375 289.8625 221.96875 266.3125 C 226.44375 244.35 239.05 224.175 256.8125 210.5 C 272.925 197.875 293.2375 190.7875 313.6875 190.5 z M 368.09375 422.84375 C 367.91875 426.08125 367.7875 429.33125 367.6875 432.59375 C 333.325 437.61875 298.9625 442.7625 264.625 447.9375 C 264.1375 444.6375 263.65 441.35 263.125 438.0625 C 265.7125 437.1125 268.4625 436.8375 271.1875 436.5 C 303.4875 431.975 335.79375 427.35625 368.09375 422.84375 z M 367.1875 445.3125 C 366.4625 448.85 365.53125 452.35 364.28125 455.75 C 334.49375 460.325 304.63125 464.58125 274.84375 469.15625 C 272.44375 466.21875 270.425 463.0125 268.75 459.625 C 301.5625 454.85 334.3625 449.9625 367.1875 445.3125 z M 356.375 469.46875 C 348.0625 479.50625 336.0625 486.6375 323.0625 488.3125 C 310.275 490.3625 296.81875 487.0375 286.15625 479.75 C 309.55625 476.2875 332.925 472.56875 356.375 469.46875 z "
     transform="scale(0.8,0.8)"
     id="path32"
     style="fill:#fafafa;fill-opacity:1" />
  <path
     d="M 316.40625 208.90625 C 297.95152 208.85096 279.45703 214.85156 264.75 226.0625 C 251.4375 236.1125 241.83125 251.03125 238.71875 267.46875 C 234.94375 288.85625 240.04375 310.95 249.71875 330.125 C 255.73125 341.0125 263.75 350.6875 269.375 361.8125 C 275.3 373.1375 278.16875 385.96875 277.96875 398.71875 C 302.40625 399.19375 326.875 398.7875 351.3125 398.9375 C 351.85 398.7875 352.9 398.4625 353.4375 398.3125 C 355.7625 387.3625 357.4 376.09375 362 365.78125 C 367.4 354.06875 374.78125 343.44375 380.96875 332.15625 C 388.44375 317.53125 393.20625 301.41875 393.90625 284.96875 C 394.16875 270.23125 390.4875 255.225 382.1875 242.9375 C 370.8875 225.675 351.875 214.31875 331.8125 210.40625 C 326.73477 209.42734 321.57358 208.92173 316.40625 208.90625 z M 313.90625 224.21875 C 322.15178 224.10134 330.40625 225.40156 338.1875 228.125 C 354.275 233.575 368.94375 245.725 374.09375 262.3125 C 378.95625 279.3 375.18125 299.63125 361.65625 311.71875 C 352.83125 319.46875 340.975 324.6875 329.0625 323.4375 C 324.7375 323.1125 321.925 319.11875 321.4375 315.09375 C 316.6625 320.38125 309.78125 323.9625 302.53125 323.625 C 293.40625 324.1625 285.3125 317.6875 281.125 310 C 276.2125 301.3 276.75 290.73125 279.125 281.34375 C 281.4875 272.28125 287.2125 263.775 295.6875 259.4375 C 307.5875 253.4375 324.28125 254.71875 332.53125 266.15625 C 332.95625 263.64375 333.275 261.1 334.125 258.6875 C 339.2 257.8 344.6 258.525 349.8125 258.4375 C 347.375 271.4125 345.0125 284.4 342.625 297.375 C 341.925 300.65 341.9875 304.0125 342.875 307.25 C 349.4625 308.0625 355.075 303.075 357.5625 297.375 C 361.6 288.225 360.99375 277.68125 358.40625 268.21875 C 355.31875 257.19375 346.73125 248.025 336.09375 243.9375 C 326.65625 240.0375 316.19375 239.5875 306.15625 240.625 C 290.81875 242.525 276.7375 252.6375 270.5625 266.875 C 261.95 286.525 264.9 312.475 281.875 326.8125 C 296.9 339.3625 318.8125 341.7375 337 335.4375 C 342.075 333.9 346.30625 330.5625 351.15625 328.5 C 353.59375 331.55 356.4375 334.3125 358.625 337.5625 C 358.075 339.9 355.3375 340.91875 353.6875 342.46875 C 325.7625 363.44375 282.0375 356.30625 261 328.84375 C 248.025 312.40625 244.6 289.41875 250.875 269.59375 C 255.05 256.28125 263.75625 244.4625 275.21875 236.5 C 286.47656 228.51562 300.1637 224.41443 313.90625 224.21875 z "
     transform="scale(0.8,0.8)"
     id="path36"
     style="fill:#fafafa;fill-opacity:1" />
  <path
     fill="#faf6fc"
     d=" M 662.13 206.60 C 665.87 206.61 669.61 206.61 673.36 206.64 C 673.43 233.29 673.38 259.94 673.42 286.59 C 669.65 286.60 665.88 286.58 662.11 286.62 C 661.61 275.20 662.06 263.74 661.90 252.31 C 642.92 252.26 623.95 252.38 604.98 252.26 C 604.61 263.70 604.95 275.16 604.81 286.61 C 601.00 286.60 597.20 286.61 593.40 286.60 C 593.40 259.93 593.39 233.27 593.43 206.61 C 597.22 206.59 601.02 206.59 604.82 206.61 C 604.83 218.00 604.79 229.39 604.85 240.79 C 623.90 240.82 642.95 240.85 662.00 240.79 C 662.23 229.39 661.99 217.99 662.13 206.60 Z"
     id="path40"
     style="fill:#fafafa;fill-opacity:1" />
  <path
     fill="#faf6fc"
     d=" M 1189.80 206.62 C 1221.80 206.52 1253.81 206.67 1285.81 206.52 C 1286.28 210.29 1286.11 214.08 1286.03 217.86 C 1274.61 218.37 1263.16 217.93 1251.73 218.12 C 1251.66 240.94 1251.71 263.75 1251.67 286.57 C 1247.89 286.58 1244.12 286.58 1240.35 286.57 C 1240.32 263.76 1240.35 240.95 1240.33 218.13 C 1228.92 217.58 1217.50 218.36 1206.10 217.89 C 1206.08 214.28 1206.13 210.66 1206.07 207.05 C 1200.71 211.30 1196.26 216.60 1191.30 221.31 C 1182.88 229.76 1174.35 238.11 1166.03 246.65 C 1179.31 259.97 1192.63 273.26 1205.93 286.56 C 1200.56 286.40 1195.11 286.95 1189.79 286.33 C 1178.26 275.15 1167.04 263.63 1155.65 252.31 C 1149.60 252.22 1143.55 252.34 1137.51 252.24 C 1137.33 263.67 1137.47 275.11 1137.42 286.55 C 1133.65 286.56 1129.88 286.56 1126.13 286.56 C 1126.07 259.91 1126.12 233.27 1126.10 206.62 C 1129.87 206.59 1133.64 206.59 1137.43 206.62 C 1137.47 218.02 1137.41 229.42 1137.45 240.83 C 1143.52 240.83 1149.60 240.88 1155.69 240.79 C 1167.03 229.37 1178.44 218.02 1189.80 206.62 Z"
     id="path42"
     style="fill:#fafafa;fill-opacity:1" />
  <path
     fill="#faf6fc"
     d=" M 501.90 206.63 C 505.73 206.54 509.57 206.55 513.41 206.60 C 513.44 227.71 513.44 248.83 513.43 269.95 C 532.54 248.83 551.50 227.56 570.70 206.53 C 574.42 206.61 578.15 206.58 581.88 206.62 C 581.78 218.43 582.00 230.23 582.12 242.03 C 581.74 256.89 582.56 271.77 581.89 286.62 C 578.10 286.60 574.32 286.61 570.54 286.59 C 570.50 265.10 570.59 243.61 570.51 222.13 C 551.47 243.58 532.48 265.08 513.50 286.58 C 509.66 286.64 505.83 286.60 502.00 286.63 C 501.69 259.97 501.94 233.30 501.90 206.63 Z"
     id="path44"
     style="fill:#fafafa;fill-opacity:1" />
  <path
     fill="#faf6fc"
     d=" M 679.18 206.63 C 705.82 206.63 732.45 206.57 759.09 206.68 C 759.13 210.40 759.13 214.12 759.11 217.84 C 747.69 217.98 736.26 217.86 724.84 217.91 C 724.77 240.80 724.84 263.69 724.80 286.59 C 721.00 286.59 717.21 286.59 713.42 286.58 C 713.37 263.69 713.51 240.81 713.37 217.92 C 701.98 217.87 690.59 217.93 679.20 217.89 C 679.17 214.13 679.18 210.38 679.18 206.63 Z"
     id="path46"
     style="fill:#fafafa;fill-opacity:1" />
  <path
     fill="#faf6fc"
     d=" M 764.92 206.66 C 791.55 206.61 818.18 206.63 844.81 206.67 C 844.80 210.40 844.80 214.14 844.80 217.88 C 821.95 218.00 799.09 217.73 776.25 218.02 C 776.21 225.62 776.20 233.23 776.26 240.83 C 795.27 240.91 814.29 240.81 833.31 240.90 C 833.39 244.68 833.38 248.45 833.34 252.23 C 814.31 252.31 795.29 252.22 776.26 252.29 C 776.22 259.92 776.23 267.55 776.27 275.18 C 799.11 275.22 821.95 275.17 844.79 275.22 C 844.81 279.00 844.81 282.78 844.79 286.57 C 818.21 286.62 791.63 286.48 765.05 286.65 C 764.64 260.00 764.98 233.32 764.92 206.66 Z"
     id="path48"
     style="fill:#fafafa;fill-opacity:1" />
  <path
     fill="#faf6fc"
     d=" M 854.11 229.03 C 853.93 216.96 865.09 206.50 877.01 206.66 C 895.97 206.65 914.93 206.61 933.90 206.68 C 933.88 233.30 933.92 259.93 933.88 286.55 C 930.12 286.56 926.37 286.57 922.62 286.51 C 922.60 263.68 922.63 240.85 922.61 218.02 C 907.42 217.76 892.21 217.93 877.01 217.93 C 870.93 217.68 865.28 222.96 865.41 229.10 C 865.32 248.24 865.43 267.39 865.38 286.53 C 861.62 286.57 857.87 286.57 854.13 286.57 C 854.07 267.39 854.12 248.21 854.11 229.03 Z"
     id="path50"
     style="fill:#fafafa;fill-opacity:1" />
  <path
     fill="#faf6fc"
     d=" M 946.62 222.39 C 949.68 213.09 959.17 206.40 968.96 206.64 C 987.76 206.66 1006.56 206.60 1025.36 206.64 C 1025.38 233.26 1025.33 259.87 1025.35 286.49 C 1021.61 286.59 1017.86 286.56 1014.13 286.54 C 1013.99 263.69 1014.31 240.83 1013.97 217.99 C 998.65 217.82 983.32 217.88 968.00 217.94 C 962.14 217.89 956.81 223.05 956.81 228.93 C 956.72 248.13 956.83 267.34 956.76 286.54 C 952.99 286.55 949.23 286.56 945.48 286.54 C 945.44 269.69 945.48 252.83 945.47 235.98 C 945.49 231.44 945.11 226.76 946.62 222.39 Z"
     id="path52"
     style="fill:#fafafa;fill-opacity:1" />
  <path
     fill="#faf6fc"
     d=" M 1036.87 206.66 C 1063.51 206.56 1090.16 206.61 1116.81 206.63 C 1116.79 210.38 1116.79 214.13 1116.79 217.89 C 1093.96 217.99 1071.13 217.76 1048.30 218.00 C 1048.27 225.62 1048.24 233.23 1048.29 240.85 C 1067.31 240.91 1086.33 240.81 1105.35 240.87 C 1105.42 244.66 1105.41 248.45 1105.37 252.24 C 1086.34 252.31 1067.31 252.20 1048.28 252.27 C 1048.20 259.88 1048.29 267.49 1048.22 275.10 C 1071.07 275.37 1093.92 275.11 1116.77 275.22 C 1116.79 279.00 1116.79 282.77 1116.76 286.55 C 1090.18 286.56 1063.59 286.52 1037.01 286.57 C 1036.75 259.94 1036.92 233.30 1036.87 206.66 Z"
     id="path54"
     style="fill:#fafafa;fill-opacity:1" />
  <path
     fill="#faf6fc"
     d=" M 1290.56 206.59 C 1294.43 206.56 1298.31 206.55 1302.19 206.64 C 1301.92 214.42 1301.97 222.22 1302.15 230.00 C 1301.97 235.71 1307.24 240.87 1312.91 240.77 C 1328.32 240.83 1343.74 240.81 1359.15 240.76 C 1359.19 229.36 1359.17 217.97 1359.16 206.58 C 1362.95 206.56 1366.75 206.56 1370.55 206.57 C 1370.57 225.73 1370.56 244.89 1370.55 264.05 C 1370.60 273.40 1364.00 282.13 1355.29 285.26 C 1350.73 287.04 1345.76 286.52 1340.99 286.59 C 1332.03 286.53 1323.06 286.70 1314.11 286.52 C 1302.52 285.97 1292.76 275.30 1292.94 263.76 C 1296.63 263.71 1300.34 263.71 1304.05 263.75 C 1304.38 269.54 1308.97 274.99 1314.99 275.12 C 1326.00 275.25 1337.03 275.20 1348.05 275.15 C 1353.56 275.17 1358.64 270.56 1359.04 265.05 C 1359.35 260.81 1359.16 256.55 1359.08 252.31 C 1344.05 252.32 1329.03 252.29 1314.00 252.32 C 1302.20 252.77 1291.12 242.83 1290.60 230.97 C 1290.46 222.85 1290.57 214.72 1290.56 206.59 Z"
     id="path56"
     style="fill:#fafafa;fill-opacity:1" />
  <path
     d="M 1756.25 258.1875 C 1744.575 257.8875 1733.475 265.85 1729.375 276.6875 C 1726.475 284.0875 1727.5312 292.20625 1727.3438 299.96875 C 1727.5062 319.39375 1726.9875 338.8375 1727.625 358.25 C 1732.325 358.225 1737.0563 358.25625 1741.7812 358.21875 C 1741.8562 348.69375 1741.6187 339.15 1741.9062 329.625 C 1765.6312 329.7125 1789.3375 329.675 1813.0625 329.625 C 1813.275 339.15 1813.1125 348.69375 1813.1875 358.21875 C 1817.9125 358.25625 1822.6375 358.24375 1827.375 358.28125 C 1827.95 334.70625 1827.575 311.1 1827.625 287.5 C 1827.75 272.975 1815.9125 259.13125 1801.1875 258.28125 C 1786.2125 258.08125 1771.225 258.25 1756.25 258.1875 z M 1777.4688 272.65625 C 1785.0031 272.65781 1792.5312 272.675 1800.0625 272.71875 C 1807.0625 272.69375 1813.1625 279.24375 1813.125 286.15625 C 1813.175 295.89375 1813.2 305.6375 1813.0625 315.375 C 1789.3375 315.3875 1765.6312 315.325 1741.9062 315.4375 C 1741.6812 305.75 1741.775 296.0625 1741.8125 286.375 C 1741.7875 279.4 1747.7375 272.69375 1754.875 272.71875 C 1762.4062 272.66875 1769.9344 272.65469 1777.4688 272.65625 z "
     transform="scale(0.8,0.8)"
     id="path58"
     style="fill:#fafafa;fill-opacity:1" />
  <path
     fill="#faf6fc"
     d=" M 1474.52 222.40 C 1477.58 213.04 1487.13 206.27 1497.00 206.55 C 1515.80 206.56 1534.61 206.54 1553.43 206.56 C 1553.47 233.24 1553.42 259.93 1553.45 286.61 C 1549.63 286.62 1545.82 286.60 1542.02 286.62 C 1541.67 263.80 1541.93 240.96 1541.87 218.14 C 1526.56 218.17 1511.26 218.12 1495.97 218.16 C 1491.85 217.95 1488.06 220.58 1486.15 224.10 C 1484.53 227.12 1484.84 230.67 1484.82 233.98 C 1484.84 251.52 1484.84 269.06 1484.81 286.60 C 1481.00 286.60 1477.20 286.61 1473.40 286.60 C 1473.39 270.04 1473.39 253.49 1473.39 236.94 C 1473.49 232.09 1472.86 227.07 1474.52 222.40 Z"
     id="path60"
     style="fill:#fafafa;fill-opacity:1" />
  <path
     d="M 1963.1875 258.1875 C 1960.7875 258.1875 1958.3937 258.19375 1956 258.21875 C 1955.9625 291.53125 1956.0562 324.84375 1955.9688 358.15625 C 1976.8937 358.41875 1997.8438 358.19375 2018.7812 358.28125 C 2024.9937 358.18125 2031.4937 358.9 2037.4062 356.4375 C 2048.1312 352.45 2056.1688 341.59375 2056.0312 330.03125 C 2056.2688 322.80625 2056.275 315.1375 2052.375 308.75 C 2047.6375 300.3 2038.5625 294.11875 2028.75 293.96875 C 2009.3 293.84375 1989.8438 294.1125 1970.4062 293.875 C 1970.3937 282 1970.3875 270.09375 1970.375 258.21875 C 1967.9688 258.19375 1965.5875 258.1875 1963.1875 258.1875 z M 1970.4688 308.21875 C 1989.4687 308.34375 2008.4875 308.21875 2027.5 308.28125 C 2034.6375 307.96875 2041.3438 314.06875 2041.6562 321.21875 C 2041.8188 324.99375 2041.9 328.7875 2041.5 332.5625 C 2040.325 339.0375 2034.1875 343.99375 2027.625 343.90625 C 2008.5625 344.03125 1989.4688 343.9375 1970.4062 343.9375 C 1970.4188 332.025 1970.2937 320.11875 1970.4688 308.21875 z "
     transform="scale(0.8,0.8)"
     id="path62"
     style="fill:#fafafa;fill-opacity:1" />
  <path
     fill="#faf6fc"
     d=" M 1653.87 206.62 C 1657.72 206.52 1661.59 206.54 1665.46 206.58 C 1665.45 217.97 1665.46 229.37 1665.45 240.76 C 1684.48 240.77 1703.51 240.76 1722.54 240.76 C 1722.51 229.37 1722.52 217.97 1722.54 206.57 C 1726.39 206.54 1730.26 206.52 1734.14 206.61 C 1734.08 233.28 1734.30 259.96 1734.03 286.63 C 1730.19 286.60 1726.36 286.63 1722.53 286.59 C 1722.52 275.18 1722.51 263.76 1722.54 252.34 C 1703.51 252.34 1684.48 252.34 1665.45 252.34 C 1665.46 263.76 1665.46 275.18 1665.46 286.60 C 1661.63 286.63 1657.82 286.60 1654.01 286.63 C 1653.67 259.96 1653.95 233.29 1653.87 206.62 Z"
     id="path64"
     style="fill:#fafafa;fill-opacity:1" />
  <path
     style="fill:#fafafa;fill-opacity:1"
     d="M 2181.75 258.1875 C 2181.7 291.55 2181.75 324.9 2181.75 358.25 C 2205.7875 358.25 2229.8063 358.3 2253.8438 358.25 C 2266.0812 358.175 2277.35 349.09375 2280.75 337.46875 C 2282.15 332.60625 2281.85 327.46875 2281.8125 322.46875 C 2281.7625 310.56875 2273.5938 299.24375 2262.3438 295.40625 C 2256.3687 293.18125 2249.9187 294.15625 2243.7188 293.96875 C 2227.8063 293.79375 2211.8563 294.29375 2195.9688 293.71875 C 2196.0687 281.88125 2195.9812 270.04375 2196.0312 258.21875 C 2191.2687 258.16875 2186.5 258.1875 2181.75 258.1875 z M 2224.9062 308.25 C 2234.525 308.25 2244.1312 308.2875 2253.75 308.3125 C 2260.775 308.25 2267.3125 314.45 2267.3125 321.5625 C 2267.275 327.1375 2268.3938 333.59375 2264.5938 338.28125 C 2261.8313 342.06875 2257.175 344.025 2252.5625 343.9375 C 2233.775 344.0125 2214.9938 343.8875 2196.2188 344 C 2195.7812 332.1125 2196.0938 320.2 2196.0312 308.3125 C 2205.65 308.2625 2215.2875 308.25 2224.9062 308.25 z "
     transform="scale(0.8,0.8)"
     id="path66" />
  <path
     fill="#faf6fc"
     d=" M 1836.77 206.59 C 1840.62 206.53 1844.48 206.53 1848.35 206.59 C 1848.35 233.25 1848.36 259.92 1848.34 286.59 C 1844.51 286.63 1840.68 286.59 1836.86 286.65 C 1836.64 259.97 1836.82 233.28 1836.77 206.59 Z"
     id="path68"
     style="fill:#fafafa;fill-opacity:1" />
  <path
     fill="#faf6fc"
     d=" M 1859.65 206.58 C 1886.35 206.58 1913.06 206.44 1939.76 206.65 C 1939.65 210.45 1939.66 214.25 1939.69 218.04 C 1916.88 218.28 1894.06 218.08 1871.24 218.14 C 1871.25 225.68 1871.24 233.23 1871.25 240.77 C 1890.27 240.77 1909.29 240.74 1928.31 240.78 C 1928.36 244.63 1928.36 248.48 1928.33 252.33 C 1909.30 252.36 1890.28 252.34 1871.25 252.34 C 1871.25 259.95 1871.23 267.56 1871.27 275.18 C 1894.07 275.18 1916.87 275.15 1939.68 275.19 C 1939.68 279.00 1939.68 282.81 1939.67 286.62 C 1913.00 286.59 1886.32 286.66 1859.64 286.58 C 1859.65 259.91 1859.63 233.25 1859.65 206.58 Z"
     id="path70"
     style="fill:#fafafa;fill-opacity:1" />
  <path
     fill="#faf6fc"
     d=" M 245.41 219.68 C 250.91 216.81 258.64 219.09 260.91 225.09 C 263.79 232.01 260.26 240.78 253.18 243.45 C 248.64 245.32 242.53 244.92 239.45 240.66 C 234.46 233.83 237.81 223.08 245.41 219.68 Z"
     id="path74"
     style="fill:#fafafa;fill-opacity:1" />
  <path
     fill="#faf6fc"
     d=" M 502.26 360.07 C 505.38 351.10 514.51 344.66 524.00 344.70 C 535.67 344.72 547.34 344.68 559.00 344.72 C 570.89 344.86 581.13 355.82 580.95 367.61 C 577.20 367.62 573.45 367.63 569.70 367.60 C 569.53 361.86 564.95 356.34 559.01 356.25 C 547.03 356.16 535.04 356.17 523.07 356.25 C 517.38 356.32 512.52 361.49 512.47 367.11 C 512.41 378.76 512.41 390.42 512.46 402.07 C 512.34 408.15 517.91 413.52 523.98 413.29 C 535.66 413.28 547.35 413.39 559.03 413.23 C 564.98 413.00 569.51 407.54 569.75 401.78 C 573.45 401.79 577.15 401.80 580.86 401.74 C 581.51 413.64 570.79 424.50 559.02 424.73 C 547.33 424.82 535.65 424.75 523.96 424.76 C 512.53 425.02 501.91 415.48 501.07 404.05 C 500.59 395.72 500.99 387.36 500.86 379.02 C 501.05 372.70 500.13 366.16 502.26 360.07 Z"
     id="path82"
     style="fill:#fafafa;fill-opacity:1" />
  <path
     fill="#faf6fc"
     d=" M 590.18 344.73 C 593.96 344.70 597.75 344.70 601.54 344.70 C 601.69 365.80 601.44 386.91 601.66 408.01 C 620.68 386.89 639.65 365.72 658.77 344.68 C 662.58 344.73 666.40 344.70 670.22 344.75 C 670.25 371.41 670.26 398.07 670.23 424.73 C 666.38 424.78 662.53 424.77 658.69 424.77 C 658.56 403.25 658.73 381.73 658.61 360.21 C 639.73 381.80 620.61 403.18 601.65 424.70 C 597.83 424.81 594.01 424.77 590.20 424.75 C 590.16 398.08 590.19 371.40 590.18 344.73 Z"
     id="path84"
     style="fill:#fafafa;fill-opacity:1" />
  <path
     fill="#faf6fc"
     d=" M 680.48 365.91 C 681.06 354.48 691.61 344.87 702.95 344.73 C 714.97 344.73 726.99 344.67 739.01 344.77 C 750.75 345.25 760.28 356.05 760.57 367.57 C 756.72 367.62 752.87 367.66 749.04 367.52 C 749.05 361.64 744.07 356.14 738.08 356.21 C 726.36 356.15 714.63 356.16 702.91 356.21 C 698.38 356.13 694.19 359.29 692.61 363.44 C 691.57 366.51 691.88 369.80 691.85 372.99 C 691.91 382.69 691.76 392.41 691.92 402.11 C 691.81 408.05 697.05 413.30 702.98 413.26 C 714.33 413.36 725.67 413.27 737.02 413.30 C 740.49 413.41 744.04 412.02 746.25 409.29 C 748.22 407.20 748.64 404.27 749.54 401.67 C 753.19 401.86 756.86 401.80 760.53 401.81 C 760.63 413.82 750.09 424.72 738.04 424.75 C 726.02 424.75 713.99 424.85 701.97 424.70 C 690.34 424.29 680.11 413.71 680.43 402.01 C 680.48 389.98 680.38 377.95 680.48 365.91 Z"
     id="path86"
     style="fill:#fafafa;fill-opacity:1" />
  <path
     fill="#faf6fc"
     d=" M 761.57 344.75 C 788.20 344.72 814.84 344.78 841.47 344.74 C 841.58 348.48 841.51 352.22 841.61 355.97 C 830.18 356.39 818.74 356.02 807.31 356.17 C 807.37 378.97 807.19 401.79 807.40 424.60 C 803.55 424.89 799.69 424.74 795.84 424.74 C 795.73 401.88 795.85 379.03 795.81 356.17 C 784.40 356.14 772.98 356.19 761.57 356.15 C 761.52 352.35 761.53 348.55 761.57 344.75 Z"
     id="path88"
     style="fill:#fafafa;fill-opacity:1" />
  <path
     fill="#faf6fc"
     d=" M 847.27 344.83 C 873.93 344.71 900.58 344.77 927.24 344.82 C 927.28 348.58 927.28 352.33 927.24 356.09 C 904.39 356.17 881.54 356.09 858.70 356.16 C 858.65 363.74 858.68 371.33 858.69 378.91 C 877.71 379.37 896.76 378.96 915.79 379.13 C 915.81 382.89 915.80 386.64 915.80 390.40 C 896.76 390.49 877.72 390.36 858.68 390.48 C 858.69 398.08 858.65 405.69 858.71 413.29 C 881.57 413.39 904.44 413.21 927.30 413.39 C 927.29 417.18 927.32 420.97 927.23 424.76 C 900.59 424.73 873.94 424.79 847.30 424.74 C 847.26 398.10 847.33 371.46 847.27 344.83 Z"
     id="path90"
     style="fill:#fafafa;fill-opacity:1" />
  <path
     fill="#faf6fc"
     d=" M 936.38 344.97 C 940.21 344.65 944.06 344.80 947.92 344.82 C 959.25 361.27 970.69 377.65 982.03 394.11 C 993.70 377.90 1004.91 361.34 1016.28 344.90 C 1020.10 344.74 1023.94 344.80 1027.78 344.83 C 1027.78 371.47 1027.81 398.10 1027.77 424.73 C 1024.00 424.75 1020.22 424.75 1016.46 424.72 C 1016.38 404.96 1016.60 385.19 1016.37 365.43 C 1004.63 381.53 993.92 398.40 982.01 414.36 C 970.50 398.14 959.53 381.52 947.85 365.44 C 947.71 385.20 947.85 404.97 947.78 424.73 C 944.00 424.76 940.22 424.76 936.44 424.73 C 936.39 398.14 936.56 371.55 936.38 344.97 Z"
     id="path92"
     style="fill:#fafafa;fill-opacity:1" />
  <path
     d="M 1306.25 431 C 1303.8812 430.99844 1301.5188 431.0375 1299.1562 431.15625 C 1299.2688 464.39375 1299.125 497.65625 1299.1875 530.90625 C 1321.1125 530.96875 1343.0438 530.9 1364.9688 530.9375 C 1368.7312 530.925 1372.55 531.10625 1376.25 530.28125 C 1388.15 527.81875 1397.9125 517.1 1398.9375 504.9375 C 1399.325 497.7875 1399.5875 490.175 1396.375 483.5625 C 1391.9875 473.8875 1382 466.775 1371.25 466.6875 C 1351.95 466.625 1332.6437 466.7375 1313.3438 466.625 C 1313.3187 454.8 1313.3 442.96875 1313.375 431.15625 C 1311 431.04375 1308.6188 431.00156 1306.25 431 z M 1342.2812 480.90625 C 1351.9266 480.90469 1361.6 480.9125 1371.25 480.9375 C 1378.0875 480.825 1384.3313 486.775 1384.7188 493.5625 C 1384.9313 497.4125 1384.9937 501.30625 1384.5938 505.15625 C 1383.5187 511.93125 1376.825 517.125 1370 516.6875 C 1351.1125 516.675 1332.25 516.7125 1313.375 516.625 C 1313.3375 504.725 1313.325 492.825 1313.375 480.9375 C 1323.0187 480.90625 1332.6359 480.90781 1342.2812 480.90625 z "
     transform="scale(0.8,0.8)"
     id="path94"
     style="fill:#fafafa;fill-opacity:1" />
  <path
     fill="#faf6fc"
     d=" M 1130.78 344.86 C 1134.54 344.80 1138.31 344.80 1142.09 344.86 C 1142.04 371.49 1142.32 398.12 1141.98 424.74 C 1138.25 424.72 1134.53 424.72 1130.82 424.73 C 1130.66 398.11 1130.78 371.48 1130.78 344.86 Z"
     id="path96"
     style="fill:#fafafa;fill-opacity:1" />
</svg>
